<?xml version="1.0" encoding="utf-8"?>
<!-- Generator: Adobe Illustrator 24.3.0, SVG Export Plug-In . SVG Version: 6.00 Build 0)  -->
<svg version="1.1" id="Layer_1" xmlns="http://www.w3.org/2000/svg" xmlns:xlink="http://www.w3.org/1999/xlink" x="0px" y="0px"
	 viewBox="0 0 226.5 43.7" style="enable-background:new 0 0 226.5 43.7;" xml:space="preserve">
<style type="text/css">
	.st0{fill:#1EAFFC;}
</style>
<g>
	<g>
		<polygon class="st0" points="21.1,18.6 10.3,1.2 0.5,1.2 0.5,42.5 9.4,42.5 9.4,15.7 20.9,33.2 21.1,33.2 32.8,15.5 32.8,42.5 
			41.8,42.5 41.8,1.2 32,1.2 		"/>
		<rect x="55.6" y="1.2" class="st0" width="9.1" height="41.3"/>
		<path class="st0" d="M95.4,17.8c-7.1-1.8-8.9-2.7-8.9-5.4v-0.1c0-2,1.8-3.6,5.3-3.6c3.5,0,7.1,1.5,10.7,4.1l4.7-6.8
			c-4.2-3.4-9.3-5.3-15.3-5.3c-8.4,0-14.5,5-14.5,12.4v0.1c0,8.2,5.4,10.5,13.7,12.6c6.9,1.8,8.3,3,8.3,5.3v0.1c0,2.4-2.2,3.9-6,3.9
			c-4.7,0-8.6-1.9-12.3-5l-5.4,6.4c5,4.4,11.3,6.6,17.5,6.6c8.9,0,15.2-4.6,15.2-12.8v-0.1C108.5,23,103.7,19.9,95.4,17.8z"/>
		<path class="st0" d="M136.1,17.8c-7.1-1.8-8.9-2.7-8.9-5.4v-0.1c0-2,1.8-3.6,5.3-3.6c3.5,0,7.1,1.5,10.7,4.1l4.7-6.8
			c-4.2-3.4-9.3-5.3-15.3-5.3c-8.4,0-14.5,5-14.5,12.4v0.1c0,8.2,5.4,10.5,13.7,12.6c6.9,1.8,8.3,3,8.3,5.3v0.1c0,2.4-2.2,3.9-6,3.9
			c-4.7,0-8.6-1.9-12.3-5l-5.4,6.4c5,4.4,11.3,6.6,17.5,6.6c8.9,0,15.2-4.6,15.2-12.8v-0.1C149.2,23,144.4,19.9,136.1,17.8z"/>
		<rect x="161" y="1.2" class="st0" width="9.1" height="41.3"/>
		<path class="st0" d="M204.1,0.5c-12.7,0-22,9.6-22,21.4V22c0,11.7,9.1,21.2,21.9,21.2s22-9.6,22-21.4v-0.1
			C226,10,216.9,0.5,204.1,0.5z M216.5,22c0,7.1-5.1,12.9-12.4,12.9c-7.3,0-12.5-5.9-12.5-13v-0.1c0-7.1,5.1-12.9,12.4-12.9
			s12.5,5.9,12.5,13V22z"/>
	</g>
</g>
</svg>
